<svg width="186" height="46" viewBox="0 0 186 46" fill="none" xmlns="http://www.w3.org/2000/svg">
<path d="M2.8 39V11H9.32L24.76 29.64H21.68V11H29.44V39H22.92L7.48 20.36H10.56V39H2.8ZM35.0266 39V11H41.5466L53.1466 30.04H49.7066L60.9866 11H67.5066L67.5866 39H60.3066L60.2266 22.08H61.4666L53.0266 36.24H49.5066L40.8266 22.08H42.3466V39H35.0266ZM69.8306 39L82.1906 11H89.9906L102.391 39H94.1506L84.4706 14.88H87.5906L77.9106 39H69.8306ZM76.5906 33.56L78.6306 27.72H92.3106L94.3506 33.56H76.5906ZM104.636 39V11H117.876C120.969 11 123.689 11.5733 126.036 12.72C128.383 13.8667 130.209 15.48 131.516 17.56C132.849 19.64 133.516 22.12 133.516 25C133.516 27.8533 132.849 30.3333 131.516 32.44C130.209 34.52 128.383 36.1333 126.036 37.28C123.689 38.4267 120.969 39 117.876 39H104.636ZM112.556 32.68H117.556C119.156 32.68 120.543 32.3867 121.716 31.8C122.916 31.1867 123.849 30.3067 124.516 29.16C125.183 27.9867 125.516 26.6 125.516 25C125.516 23.3733 125.183 21.9867 124.516 20.84C123.849 19.6933 122.916 18.8267 121.716 18.24C120.543 17.6267 119.156 17.32 117.556 17.32H112.556V32.68ZM147.523 39.56C145.229 39.56 143.016 39.28 140.883 38.72C138.776 38.1333 137.056 37.3867 135.723 36.48L138.323 30.64C139.576 31.44 141.016 32.1067 142.643 32.64C144.296 33.1467 145.936 33.4 147.563 33.4C148.656 33.4 149.536 33.3067 150.203 33.12C150.869 32.9067 151.349 32.64 151.643 32.32C151.963 31.9733 152.123 31.5733 152.123 31.12C152.123 30.48 151.829 29.9733 151.243 29.6C150.656 29.2267 149.896 28.92 148.963 28.68C148.029 28.44 146.989 28.2 145.843 27.96C144.723 27.72 143.589 27.4133 142.443 27.04C141.323 26.6667 140.296 26.1867 139.363 25.6C138.429 24.9867 137.669 24.2 137.083 23.24C136.496 22.2533 136.203 21.0133 136.203 19.52C136.203 17.84 136.656 16.32 137.563 14.96C138.496 13.6 139.883 12.5067 141.723 11.68C143.563 10.8533 145.856 10.44 148.603 10.44C150.443 10.44 152.243 10.6533 154.003 11.08C155.789 11.48 157.376 12.08 158.763 12.88L156.323 18.76C154.989 18.04 153.669 17.5067 152.363 17.16C151.056 16.7867 149.789 16.6 148.563 16.6C147.469 16.6 146.589 16.72 145.923 16.96C145.256 17.1733 144.776 17.4667 144.483 17.84C144.189 18.2133 144.043 18.64 144.043 19.12C144.043 19.7333 144.323 20.2267 144.883 20.6C145.469 20.9467 146.229 21.24 147.163 21.48C148.123 21.6933 149.163 21.92 150.283 22.16C151.429 22.4 152.563 22.7067 153.683 23.08C154.829 23.4267 155.869 23.9067 156.803 24.52C157.736 25.1067 158.483 25.8933 159.043 26.88C159.629 27.84 159.923 29.0533 159.923 30.52C159.923 32.1467 159.456 33.6533 158.523 35.04C157.616 36.4 156.243 37.4933 154.403 38.32C152.589 39.1467 150.296 39.56 147.523 39.56Z" fill="#0E062E"/>
<path d="M39.4677 21.1066C39.4677 25.8348 36.229 39.7397 32.2338 39.7397C28.2387 39.7397 25 25.8348 25 21.1066C25 16.3784 28.2387 12.5454 32.2338 12.5454C36.229 12.5454 39.4677 16.3784 39.4677 21.1066Z" fill="white"/>
<ellipse cx="31.9549" cy="20.984" rx="3.5" ry="3.65909" fill="#0E062E"/>
</svg>
